<svg aria-hidden="true" style="width:0;height:0;position:absolute;overflow:hidden" xmlns="http://www.w3.org/2000/svg"><defs><symbol xmlns="http://www.w3.org/2000/svg" viewBox="0 0 30 30" id="close"><path d="m8 8 14 14M8 22 22 8" stroke="#000" stroke-width="2"/></symbol><symbol id="icon-heart" viewBox="0 0 34 32"><path fill="#ff6b08" style="fill:var(--color1,#ff6b08)" d="m17.231 31.705-2.412-2.412C5.859 21.367.001 16.025.001 9.478.001 4.136 4.136.001 9.478.001c2.929 0 5.858 1.378 7.754 3.618 1.895-2.24 4.825-3.618 7.754-3.618 5.342 0 9.477 4.135 9.477 9.477 0 6.548-5.858 11.889-14.818 19.815l-2.412 2.412z"/></symbol><symbol id="icon-close" viewBox="0 0 32 32"><path d="M32 3.223 28.777 0 16 12.777 3.223 0 0 3.223 12.777 16 0 28.777 3.223 32 16 19.223 28.777 32 32 28.777 19.223 16 32 3.223z"/></symbol><symbol id="icon-github" viewBox="0 0 27 32"><path d="M5.189.546c-.499 1.557-.512 3.014-.033 4.391l.166.466-.419.452c-.539.585-.812 1.058-1.084 1.849-.599 1.736-.805 5.276-.426 7.099.732 3.499 3.493 5.788 7.837 6.486l.479.08-.166.2c-.366.439-.712 1.404-.852 2.408l-.08.592-.353.12c-.539.186-1.364.279-2.002.239-1.696-.12-2.927-.878-3.965-2.475-.998-1.523-1.843-2.082-3.227-2.142-1.111-.047-1.224.186-.386.778.745.519 1.603 1.71 2.515 3.446.273.526.632 1.111.858 1.384.699.845 1.79 1.53 2.907 1.83.891.239 2.615.246 3.539.013l.146-.033V32h8.516v-3.885c0-3.187-.02-3.978-.1-4.411-.166-.891-.546-1.863-.845-2.189l-.133-.146.492-.08c4.358-.705 7.119-3 7.837-6.52.326-1.583.206-4.777-.233-6.487-.273-1.051-.699-1.843-1.344-2.501l-.359-.373.106-.253c.206-.499.379-1.337.412-2.029.04-.805-.08-1.643-.359-2.515l-.18-.552-.266.047c-1.158.193-2.488 1.171-3.612 2.661-.373.499-.373.499-.512.366-.592-.539-2.136-.858-4.497-.918-2.834-.073-4.863.233-5.715.845l-.266.2-.379-.519C8.487 1.77 7.503.898 6.605.439 6.292.279 5.607.066 5.421.066c-.04 0-.146.22-.233.479z"/></symbol><symbol id="icon-linkedln" viewBox="0 0 32 32"><path d="M6.64 4.667C6.64 6.508 5.16 8 3.333 8S.026 6.508.026 4.667c0-1.84 1.48-3.333 3.307-3.333S6.64 2.827 6.64 4.667zm.027 6H0V32h6.667V10.667zm10.642 0h-6.624V32h6.625V20.801c0-6.227 8.039-6.736 8.039 0V32H32V18.492C32 7.985 20.104 8.368 17.309 13.54v-2.873z"/></symbol><symbol id="logo" viewBox="0 0 32 32"><path fill="none" style="stroke:currentColor" stroke-linejoin="round" stroke-linecap="round" stroke-width="2.667" d="M26.427 2.667H5.574a2.907 2.907 0 0 0-2.907 2.907v20.853a2.907 2.907 0 0 0 2.907 2.907v0h20.853a2.907 2.907 0 0 0 2.907-2.907v0V5.574a2.907 2.907 0 0 0-2.907-2.907v0zm-17.094 0v26.667M22.667 2.667v26.667M2.667 16h26.667M2.667 9.333h6.667M2.667 22.667h6.667m13.333 0h6.667M22.667 9.333h6.667"/></symbol><symbol id="up" viewBox="0 0 32 32"><path style="fill:currentColor" d="M0 16c0 8.837 7.163 16 16 16s16-7.163 16-16S24.837 0 16 0 0 7.163 0 16zm29 0c0 7.18-5.82 13-13 13S3 23.18 3 16 8.82 3 16 3s13 5.82 13 13z"/><path style="fill:currentColor" d="m22.086 20.914 2.829-2.829-8.914-8.914-8.914 8.914 2.828 2.828 6.086-6.086z"/></symbol><symbol id="github" viewBox="0 0 24 24"><path d="M12 0C5.374 0 0 5.373 0 12c0 5.302 3.438 9.8 8.207 11.387.599.111.793-.261.793-.577v-2.234c-3.338.726-4.033-1.416-4.033-1.416-.546-1.387-1.333-1.756-1.333-1.756-1.089-.745.083-.729.083-.729 1.205.084 1.839 1.237 1.839 1.237 1.07 1.834 2.807 1.304 3.492.997.107-.775.418-1.305.762-1.604-2.665-.305-5.467-1.334-5.467-5.931 0-1.311.469-2.381 1.236-3.221-.124-.303-.535-1.524.117-3.176 0 0 1.008-.322 3.301 1.23A11.509 11.509 0 0 1 12 5.803c1.02.005 2.047.138 3.006.404 2.291-1.552 3.297-1.23 3.297-1.23.653 1.653.242 2.874.118 3.176.77.84 1.235 1.911 1.235 3.221 0 4.609-2.807 5.624-5.479 5.921.43.372.823 1.102.823 2.222v3.293c0 .319.192.694.801.576C20.566 21.797 24 17.3 24 12c0-6.627-5.373-12-12-12z"/></symbol><symbol xmlns="http://www.w3.org/2000/svg" viewBox="0 0 12 12" id="search-icon"><path d="M6 9a4 4 0 1 0 0-8 4 4 0 0 0 0 8ZM10.5 10.5 8.325 8.325" stroke="#fff" stroke-linecap="round" stroke-linejoin="round"/></symbol></defs></svg>