<svg aria-hidden="true" style="position: absolute; width: 0; height: 0; overflow: hidden;" version="1.1"
     xmlns="http://www.w3.org/2000/svg">
  <defs>
  
  <!-- footer icons -->
    <symbol id="icon-heart" viewBox="0 0 34 32">
<path fill="#ff6b08" style="fill: var(--color1, #ff6b08)" d="M17.231 31.705l-2.412-2.412c-8.96-7.926-14.818-13.268-14.818-19.815 0-5.342 4.135-9.477 9.477-9.477 2.929 0 5.858 1.378 7.754 3.618 1.895-2.24 4.825-3.618 7.754-3.618 5.342 0 9.477 4.135 9.477 9.477 0 6.548-5.858 11.889-14.818 19.815l-2.412 2.412z"></path>
</symbol>
<symbol id="icon-close" viewBox="0 0 32 32">
<path d="M32 3.223l-3.223-3.223-12.777 12.777-12.777-12.777-3.223 3.223 12.777 12.777-12.777 12.777 3.223 3.223 12.777-12.777 12.777 12.777 3.223-3.223-12.777-12.777 12.777-12.777z"></path>
</symbol>
<symbol id="icon-github" viewBox="0 0 27 32">
<path d="M5.189 0.546c-0.499 1.557-0.512 3.014-0.033 4.391l0.166 0.466-0.419 0.452c-0.539 0.585-0.812 1.058-1.084 1.849-0.599 1.736-0.805 5.276-0.426 7.099 0.732 3.499 3.493 5.788 7.837 6.486l0.479 0.080-0.166 0.2c-0.366 0.439-0.712 1.404-0.852 2.408l-0.080 0.592-0.353 0.12c-0.539 0.186-1.364 0.279-2.002 0.239-1.696-0.12-2.927-0.878-3.965-2.475-0.998-1.523-1.843-2.082-3.227-2.142-1.111-0.047-1.224 0.186-0.386 0.778 0.745 0.519 1.603 1.71 2.515 3.446 0.273 0.526 0.632 1.111 0.858 1.384 0.699 0.845 1.79 1.53 2.907 1.83 0.891 0.239 2.615 0.246 3.539 0.013l0.146-0.033v4.271h8.516v-3.885c0-3.187-0.020-3.978-0.1-4.411-0.166-0.891-0.546-1.863-0.845-2.189l-0.133-0.146 0.492-0.080c4.358-0.705 7.119-3 7.837-6.52 0.326-1.583 0.206-4.777-0.233-6.487-0.273-1.051-0.699-1.843-1.344-2.501l-0.359-0.373 0.106-0.253c0.206-0.499 0.379-1.337 0.412-2.029 0.040-0.805-0.080-1.643-0.359-2.515l-0.18-0.552-0.266 0.047c-1.158 0.193-2.488 1.171-3.612 2.661-0.373 0.499-0.373 0.499-0.512 0.366-0.592-0.539-2.136-0.858-4.497-0.918-2.834-0.073-4.863 0.233-5.715 0.845l-0.266 0.2-0.379-0.519c-0.719-0.971-1.703-1.843-2.601-2.302-0.313-0.16-0.998-0.373-1.184-0.373-0.040 0-0.146 0.22-0.233 0.479z"></path>
</symbol>
<symbol id="icon-linkedln" viewBox="0 0 32 32">
<path d="M6.64 4.667c0 1.841-1.48 3.333-3.307 3.333s-3.307-1.492-3.307-3.333c0-1.84 1.48-3.333 3.307-3.333s3.307 1.493 3.307 3.333zM6.667 10.667h-6.667v21.333h6.667v-21.333zM17.309 10.667h-6.624v21.333h6.625v-11.199c0-6.227 8.039-6.736 8.039 0v11.199h6.651v-13.508c0-10.507-11.896-10.124-14.691-4.952v-2.873z"></path>
</symbol>

  </defs>
</svg>